<svg width="32" height="32" viewBox="0 0 24 24" fill="none" xmlns="http://www.w3.org/2000/svg">
  <path d="M9.937 15.5A2 2 0 0 0 8.5 14.063l-6.135-1.582a.5.5 0 0 1 0-.962L8.5 9.937A2 2 0 0 0 9.937 8.5l1.582-6.135a.5.5 0 0 1 .962 0L14.063 8.5A2 2 0 0 0 15.5 9.937l6.135 1.582a.5.5 0 0 1 0 .962L15.5 14.063a2 2 0 0 0-1.437 1.437l-1.582 6.135a.5.5 0 0 1-.962 0z" fill="#4F46E5"/>
  <path d="M18.5 3.5L19 4.5H20a.5.5 0 0 1 0 1H19L18.5 6.5a.5.5 0 0 1-1 0L17 5.5H16a.5.5 0 0 1 0-1H17L17.5 3.5a.5.5 0 0 1 1 0z" fill="#4F46E5"/>
  <path d="M5.5 16.5L6 17.5H7a.5.5 0 0 1 0 1H6L5.5 19.5a.5.5 0 0 1-1 0L4 18.5H3a.5.5 0 0 1 0-1H4L4.5 16.5a.5.5 0 0 1 1 0z" fill="#4F46E5"/>
</svg> 